<svg width="30" height="30" viewBox="0 0 30 30" fill="none" xmlns="http://www.w3.org/2000/svg">
<path fill-rule="evenodd" clip-rule="evenodd" d="M29.2734 3.44008C29.4516 3.26214 29.5929 3.05085 29.6894 2.81827C29.7859 2.5857 29.8357 2.33639 29.8358 2.08459C29.836 1.83279 29.7866 1.58342 29.6903 1.35073C29.5941 1.11804 29.453 0.906571 29.2751 0.728411C29.0971 0.550251 28.8858 0.408884 28.6533 0.312381C28.4207 0.215878 28.1714 0.166128 27.9196 0.165974C27.6678 0.165819 27.4184 0.215261 27.1857 0.311479C26.953 0.407696 26.7416 0.548803 26.5634 0.726744L15.0001 12.2901L3.44008 0.726744C3.08027 0.366934 2.59226 0.164795 2.08341 0.164795C1.57456 0.164795 1.08655 0.366934 0.726744 0.726744C0.366934 1.08655 0.164795 1.57456 0.164795 2.08341C0.164795 2.59226 0.366934 3.08027 0.726744 3.44008L12.2901 15.0001L0.726744 26.5601C0.548584 26.7382 0.40726 26.9497 0.310841 27.1825C0.214421 27.4153 0.164795 27.6648 0.164795 27.9167C0.164795 28.1687 0.214421 28.4182 0.310841 28.651C0.40726 28.8837 0.548584 29.0952 0.726744 29.2734C1.08655 29.6332 1.57456 29.8354 2.08341 29.8354C2.33537 29.8354 2.58486 29.7857 2.81763 29.6893C3.05041 29.5929 3.26192 29.4516 3.44008 29.2734L15.0001 17.7101L26.5634 29.2734C26.9232 29.6328 27.4111 29.8345 27.9196 29.8342C28.4281 29.8339 28.9157 29.6316 29.2751 29.2717C29.6345 28.9119 29.8362 28.4241 29.8358 27.9156C29.8355 27.407 29.6332 26.9194 29.2734 26.5601L17.7101 15.0001L29.2734 3.44008Z" fill="black"/>
</svg>
